<svg width="120" height="25" viewBox="0 0 120 25" fill="none" xmlns="http://www.w3.org/2000/svg">
<path d="M4.75 24H0.234375L8.45312 0.71875H13.6406L21.8438 24H17.3438L11.125 5.5H10.9375L4.75 24ZM4.90625 14.875H17.1719V18.25H4.90625V14.875ZM27.6562 0.71875V24H23.5469V0.71875H27.6562ZM39.9688 24.3125C38.9792 24.3125 38.151 24.1458 37.4844 23.8125C36.8281 23.4688 36.2969 23.0625 35.8906 22.5938C35.4948 22.1146 35.1927 21.6615 34.9844 21.2344H34.7344V24H30.7031V0.71875H34.8125V9.42188H34.9844C35.1927 9.00521 35.4896 8.55729 35.875 8.07812C36.2604 7.58854 36.7812 7.17188 37.4375 6.82812C38.1042 6.48438 38.9531 6.3125 39.9844 6.3125C41.3281 6.3125 42.5417 6.65625 43.625 7.34375C44.7083 8.03125 45.5677 9.04167 46.2031 10.375C46.849 11.7083 47.1719 13.349 47.1719 15.2969C47.1719 17.2135 46.8594 18.8438 46.2344 20.1875C45.6094 21.5312 44.75 22.5573 43.6562 23.2656C42.5729 23.9635 41.3438 24.3125 39.9688 24.3125ZM38.8438 20.9375C39.75 20.9375 40.5052 20.6927 41.1094 20.2031C41.724 19.7135 42.1875 19.0417 42.5 18.1875C42.8125 17.3333 42.9688 16.3646 42.9688 15.2812C42.9688 14.1979 42.8125 13.2344 42.5 12.3906C42.1875 11.5469 41.7292 10.8854 41.125 10.4062C40.5208 9.92708 39.7604 9.6875 38.8438 9.6875C37.9583 9.6875 37.2083 9.91667 36.5938 10.375C35.9896 10.8333 35.526 11.4844 35.2031 12.3281C34.8906 13.1615 34.7344 14.1458 34.7344 15.2812C34.7344 16.4062 34.8906 17.3958 35.2031 18.25C35.526 19.0938 35.9948 19.7552 36.6094 20.2344C37.224 20.7031 37.9688 20.9375 38.8438 20.9375ZM54.4844 24.3594C53.3698 24.3594 52.3698 24.1615 51.4844 23.7656C50.599 23.3594 49.901 22.7656 49.3906 21.9844C48.8802 21.2031 48.625 20.2396 48.625 19.0938C48.625 18.1146 48.8073 17.3021 49.1719 16.6562C49.5365 16.0104 50.0312 15.4948 50.6562 15.1094C51.2917 14.724 52.0052 14.4323 52.7969 14.2344C53.5885 14.026 54.4062 13.8802 55.25 13.7969C56.2812 13.6823 57.1146 13.5833 57.75 13.5C58.3854 13.4167 58.8438 13.2812 59.125 13.0938C59.4167 12.9062 59.5625 12.6146 59.5625 12.2188V12.1406C59.5625 11.2969 59.3125 10.6406 58.8125 10.1719C58.3125 9.70312 57.5833 9.46875 56.625 9.46875C55.6146 9.46875 54.8125 9.6875 54.2188 10.125C53.6354 10.5625 53.2396 11.0781 53.0312 11.6719L49.2031 11.125C49.5052 10.0625 50.0052 9.17708 50.7031 8.46875C51.401 7.75 52.25 7.21354 53.25 6.85938C54.2604 6.49479 55.375 6.3125 56.5938 6.3125C57.4271 6.3125 58.2604 6.41146 59.0938 6.60938C59.9271 6.79688 60.6927 7.11979 61.3906 7.57812C62.0885 8.03646 62.6458 8.65104 63.0625 9.42188C63.4792 10.1927 63.6875 11.1562 63.6875 12.3125V24H59.7344V21.5938H59.6094C59.3594 22.0729 59.0052 22.526 58.5469 22.9531C58.099 23.3698 57.5365 23.7083 56.8594 23.9688C56.1927 24.2292 55.401 24.3594 54.4844 24.3594ZM55.5312 21.3281C56.3646 21.3281 57.0833 21.1667 57.6875 20.8438C58.2917 20.5104 58.7604 20.0729 59.0938 19.5312C59.4271 18.9792 59.5938 18.3802 59.5938 17.7344V15.6875C59.4583 15.7917 59.2396 15.8906 58.9375 15.9844C58.6354 16.0677 58.2917 16.1458 57.9062 16.2188C57.5208 16.2917 57.1406 16.3542 56.7656 16.4062C56.401 16.4583 56.0833 16.5 55.8125 16.5312C55.1979 16.6146 54.6458 16.7552 54.1562 16.9531C53.6771 17.1406 53.2969 17.401 53.0156 17.7344C52.7344 18.0677 52.5938 18.5 52.5938 19.0312C52.5938 19.7917 52.8698 20.3646 53.4219 20.75C53.974 21.1354 54.6771 21.3281 55.5312 21.3281ZM73.1719 24.3125C71.8073 24.3125 70.5781 23.9635 69.4844 23.2656C68.401 22.5573 67.5469 21.5312 66.9219 20.1875C66.2969 18.8438 65.9844 17.2135 65.9844 15.2969C65.9844 13.349 66.3021 11.7083 66.9375 10.375C67.5833 9.04167 68.4479 8.03125 69.5312 7.34375C70.6146 6.65625 71.8281 6.3125 73.1719 6.3125C74.2031 6.3125 75.0469 6.48438 75.7031 6.82812C76.3594 7.17188 76.8802 7.58854 77.2656 8.07812C77.6615 8.55729 77.9635 9.00521 78.1719 9.42188H78.3438V0.71875H82.4375V24H78.4219V21.2344H78.1719C77.9531 21.6615 77.6458 22.1146 77.25 22.5938C76.8542 23.0625 76.3281 23.4688 75.6719 23.8125C75.0156 24.1458 74.1823 24.3125 73.1719 24.3125ZM74.3125 20.9375C75.1875 20.9375 75.9271 20.7031 76.5312 20.2344C77.1458 19.7552 77.6146 19.0938 77.9375 18.25C78.2604 17.3958 78.4219 16.4062 78.4219 15.2812C78.4219 14.1458 78.2604 13.1615 77.9375 12.3281C77.625 11.4844 77.1615 10.8333 76.5469 10.375C75.9427 9.91667 75.1979 9.6875 74.3125 9.6875C73.4062 9.6875 72.6458 9.92708 72.0312 10.4062C71.4167 10.8854 70.9531 11.5469 70.6406 12.3906C70.3385 13.2344 70.1875 14.1979 70.1875 15.2812C70.1875 16.3646 70.3438 17.3333 70.6562 18.1875C70.9688 19.0417 71.4271 19.7135 72.0312 20.2031C72.6458 20.6927 73.4062 20.9375 74.3125 20.9375ZM93.0938 24.3438C91.3854 24.3438 89.9062 23.9688 88.6562 23.2188C87.4062 22.4688 86.4375 21.4167 85.75 20.0625C85.0729 18.7083 84.7344 17.1354 84.7344 15.3438C84.7344 13.5417 85.0729 11.9635 85.75 10.6094C86.4375 9.24479 87.4062 8.1875 88.6562 7.4375C89.9062 6.6875 91.3854 6.3125 93.0938 6.3125C94.8021 6.3125 96.2812 6.6875 97.5312 7.4375C98.7812 8.1875 99.75 9.24479 100.438 10.6094C101.125 11.9635 101.469 13.5417 101.469 15.3438C101.469 17.1354 101.125 18.7083 100.438 20.0625C99.75 21.4167 98.7812 22.4688 97.5312 23.2188C96.2812 23.9688 94.8021 24.3438 93.0938 24.3438ZM93.0938 21.0312C94.0417 21.0312 94.8229 20.7812 95.4375 20.2812C96.0521 19.7708 96.5104 19.0833 96.8125 18.2188C97.125 17.3542 97.2812 16.3958 97.2812 15.3438C97.2812 14.2708 97.125 13.3021 96.8125 12.4375C96.5104 11.5729 96.0521 10.8906 95.4375 10.3906C94.8229 9.88021 94.0417 9.625 93.0938 9.625C92.1667 9.625 91.3906 9.88021 90.7656 10.3906C90.1406 10.8906 89.6719 11.5729 89.3594 12.4375C89.0573 13.3021 88.9062 14.2708 88.9062 15.3438C88.9062 16.3958 89.0573 17.3542 89.3594 18.2188C89.6719 19.0833 90.1406 19.7708 90.7656 20.2812C91.3906 20.7812 92.1667 21.0312 93.0938 21.0312ZM111.469 24.3438C109.719 24.3438 108.208 23.9792 106.938 23.25C105.667 22.5104 104.688 21.4688 104 20.125C103.323 18.7812 102.984 17.1979 102.984 15.375C102.984 13.5729 103.323 11.9948 104 10.6406C104.677 9.27604 105.63 8.21354 106.859 7.45312C108.089 6.69271 109.536 6.3125 111.203 6.3125C112.276 6.3125 113.292 6.48438 114.25 6.82812C115.219 7.17188 116.073 7.70312 116.812 8.42188C117.562 9.14062 118.151 10.0573 118.578 11.1719C119.005 12.276 119.219 13.5938 119.219 15.125V16.4062H104.906V13.6406H117.172L115.25 14.4531C115.25 13.4635 115.099 12.6042 114.797 11.875C114.495 11.1354 114.047 10.5573 113.453 10.1406C112.859 9.72396 112.12 9.51562 111.234 9.51562C110.349 9.51562 109.594 9.72396 108.969 10.1406C108.344 10.5573 107.87 11.1198 107.547 11.8281C107.224 12.526 107.062 13.3073 107.062 14.1719V16.0938C107.062 17.1562 107.245 18.0677 107.609 18.8281C107.984 19.5781 108.505 20.151 109.172 20.5469C109.849 20.9427 110.635 21.1406 111.531 21.1406C112.115 21.1406 112.646 21.0573 113.125 20.8906C113.615 20.724 114.031 20.474 114.375 20.1406C114.729 19.7969 115 19.375 115.188 18.875L119.031 19.3281C118.781 20.3385 118.318 21.224 117.641 21.9844C116.974 22.7344 116.115 23.3177 115.062 23.7344C114.021 24.1406 112.823 24.3438 111.469 24.3438Z" fill="white"/>
</svg>
