<svg width="16" height="16" viewBox="0 0 16 16" fill="none" xmlns="http://www.w3.org/2000/svg">
<path d="M5.82191 16.0013C7.30197 16.0013 8.50319 14.8066 8.50319 13.3346V10.668H5.82191C4.34184 10.668 3.14062 11.8626 3.14062 13.3346C3.14062 14.8066 4.34184 16.0013 5.82191 16.0013Z" fill="#0ACF83"/>
<path d="M3.14062 7.9987C3.14062 6.5267 4.34184 5.33203 5.82191 5.33203H8.50319V10.6654H5.82191C4.34184 10.6654 3.14062 9.4707 3.14062 7.9987Z" fill="#A259FF"/>
<path d="M3.14062 2.66667C3.14062 1.19467 4.34184 0 5.82191 0H8.50319V5.33333H5.82191C4.34184 5.33333 3.14062 4.13867 3.14062 2.66667Z" fill="#F24E1E"/>
<path d="M8.5 0H11.1813C12.6613 0 13.8626 1.19467 13.8626 2.66667C13.8626 4.13867 12.6613 5.33333 11.1813 5.33333H8.5V0Z" fill="#FF7262"/>
<path d="M13.8626 7.9987C13.8626 9.4707 12.6613 10.6654 11.1813 10.6654C9.70121 10.6654 8.5 9.4707 8.5 7.9987C8.5 6.5267 9.70121 5.33203 11.1813 5.33203C12.6613 5.33203 13.8626 6.5267 13.8626 7.9987Z" fill="#1ABCFE"/>
</svg>
