<svg version="1.2" xmlns="http://www.w3.org/2000/svg" viewBox="0 0 34 34" width="36" height="36"><defs><linearGradient id="P" gradientUnits="userSpaceOnUse"/><linearGradient id="g1" x2="1" href="#P" gradientTransform="matrix(31.324,36.309,-36.309,31.324,0,0)"><stop stop-color="#3beb64"/><stop offset="1" stop-color="#09a41d"/></linearGradient></defs><style>.a{fill:url(#g1)}.b{fill:#fff}</style><path class="a" d="m0 6c0-3.3 2.7-6 6-6h22c3.3 0 6 2.7 6 6v22c0 3.3-2.7 6-6 6h-22c-3.3 0-6-2.7-6-6z"/><path class="b" d="m5.7 15.7c5.7 0.2 10.4 4.5 11.1 10.1-5.7-0.2-10.4-4.5-11.1-10.1z"/><path class="b" d="m28.2 15.7c-5.7 0.2-10.4 4.5-11.2 10.1 5.8-0.2 10.5-4.5 11.2-10.1z"/><path class="b" d="m16.9 21.1c3.8-4.3 3.9-10.7 0.4-15.1-3.8 4.3-3.9 10.6-0.4 15.1z"/></svg>